<svg id="Layer_1" data-name="Layer 1" xmlns="http://www.w3.org/2000/svg" viewBox="0 0 2500 2000"><defs><style>.cls-1{fill:#fff;}.cls-2{fill:#f7a491;}.cls-3{fill:#f7cc7f;}.cls-4{fill:#3c8f7c;}.cls-5{fill:#50bfa5;}.cls-6{fill:#96d9c9;}.cls-7{fill:#b75742;}.cls-8{fill:#184655;}.cls-9{fill:#466eb6;}.cls-10{fill:#f48c7f;}.cls-11{fill:#fae0b2;}.cls-12{fill:#86b1f2;}.cls-13{fill:#355389;}.cls-14{fill:#f47458;}.cls-15{fill:#9bc1f9;}.cls-16{fill:#13375b;}.cls-17{fill:#f8a492;}.cls-18{fill:#fe875e;}.cls-19{fill:#f79c8d;}.cls-20{fill:#ff4c16;}</style></defs><rect class="cls-1" width="2500" height="2000"/><path class="cls-2" d="M1055,678.91c-4.85,7.24-8.45,23.78-11.75,32.8s-3.8,36-4.43,41.94,1.5,24.77,1.5,24.77l24.34,4s2.24-13.79,8.72-21.31c7-8.07,20.54-26.59,17.13-33.71C1085,716,1055.63,717,1055.63,717s1.41-8.92,2.12-15.61,9.15-18.93,5.82-23.06S1056.16,677.12,1055,678.91Z" transform="translate(0)"/><polygon class="cls-3" points="581.06 571.21 579.43 594.58 557.48 602.91 609.72 640.1 632.04 631.4 632.04 607.79 581.06 571.21"/><circle class="cls-4" cx="713.89" cy="686.4" r="93.29" transform="translate(-119.47 1221.46) rotate(-76.58)"/><circle class="cls-5" cx="713.89" cy="686.4" r="74.09" transform="translate(-206.23 320.12) rotate(-22.17)"/><circle class="cls-6" cx="713.89" cy="686.4" r="47.56" transform="translate(-102.38 1247.19) rotate(-78.36)"/><path class="cls-7" d="M736.81,686.45a22.87,22.87,0,1,1-22.87-22.87A22.86,22.86,0,0,1,736.81,686.45Z" transform="translate(0)"/><path class="cls-8" d="M712.34,688.38a1.93,1.93,0,0,1-1.12-.35L580.9,598.78a2,2,0,0,1,2.24-3.27l129.12,88.43C713.16,684.56,713,688.38,712.34,688.38Z" transform="translate(0)"/><polygon class="cls-3" points="707.06 675.21 707.57 682.83 700.26 685.22 712.91 689.44 713.64 683.45 707.06 675.21"/><path class="cls-8" d="M1421.1,1520.67h-44.79a31,31,0,0,1-31-31V1353.14l-186.9-2.62v139.19a31,31,0,0,1-31,31h-40.58a74.43,74.43,0,0,0-74.43,74.43h483.07A74.43,74.43,0,0,0,1421.1,1520.67Z" transform="translate(0)"/><rect class="cls-8" x="1513.4" y="640.17" width="470.28" height="952.58"/><polygon class="cls-9" points="1949.72 1047.83 1951.78 1061.81 1929.65 1067.63 1930.15 1088.45 1914.29 1095.51 1917.86 1103.53 1939.07 1094.09 1938.6 1074.36 1961.63 1068.31 1958.52 1047.27 1949.72 1047.83"/><path class="cls-3" d="M1778.92,599.82l-6.3-14.9-15.85-3.26a2.22,2.22,0,0,1-1-3.85l12.22-10.6-1.8-16.08a2.22,2.22,0,0,1,3.36-2.15l13.86,8.35,14.73-6.68a2.22,2.22,0,0,1,3.09,2.52l-3.66,15.77,10.91,11.95a2.22,2.22,0,0,1-1.46,3.71L1790.89,586l-8,14.07A2.22,2.22,0,0,1,1778.92,599.82Z" transform="translate(0)"/><path class="cls-3" d="M1377.18,459.24l-3.93-9.28-9.87-2a1.39,1.39,0,0,1-.63-2.4l7.62-6.6-1.12-10a1.38,1.38,0,0,1,2.09-1.34l8.63,5.21,9.18-4.16a1.38,1.38,0,0,1,1.92,1.57l-2.28,9.82,6.79,7.44a1.38,1.38,0,0,1-.9,2.31l-10,.87-5,8.76A1.38,1.38,0,0,1,1377.18,459.24Z" transform="translate(0)"/><polygon class="cls-10" points="2004.83 1117.71 1998.54 1126.43 1983.4 1117.85 1972.62 1129.46 1960.24 1124.89 1957.93 1131.16 1974.49 1137.27 1984.7 1126.27 2000.45 1135.19 2009.92 1122.07 2004.83 1117.71"/><path class="cls-3" d="M1790.5,488.58l-83-43.39a3.4,3.4,0,0,1-1.44-4.59l29.19-55.82a3.4,3.4,0,0,1,4.59-1.43l83,43.38a3.4,3.4,0,0,1,1.44,4.59l-29.18,55.82A3.42,3.42,0,0,1,1790.5,488.58Z" transform="translate(0)"/><path class="cls-3" d="M1769.38,408.05l-25.26-13.2a3.42,3.42,0,0,1-1.44-4.6l4.44-8.49a3.41,3.41,0,0,1,4.6-1.44l25.25,13.2a3.41,3.41,0,0,1,1.44,4.6l-4.44,8.49A3.4,3.4,0,0,1,1769.38,408.05Z" transform="translate(0)"/><path class="cls-11" d="M1795.21,487.54a3.4,3.4,0,0,1-4.44,1.17l-83.52-43.66a3.41,3.41,0,0,1-1.57-4.3l20.91-51.64a3.41,3.41,0,0,1,4.74-1.74l92.77,48.51a3.41,3.41,0,0,1,1.28,4.86Z" transform="translate(0)"/><polygon class="cls-5" points="1761.39 941.82 1745.63 946.13 1742.23 927.03 1747.39 926.11 1749.78 939.56 1760.01 936.77 1761.39 941.82"/><path class="cls-9" d="M1837.31,518.4l10.25,9.79a272.52,272.52,0,0,1,58.37,80.87l1.57,3.33s26.86,2.37,30.61-21.91h0a406.17,406.17,0,0,1-59-86.62l-4.86-11.35Z" transform="translate(0)"/><path class="cls-12" d="M1874.26,492.48c1.32,1.89-5.89,9.19-16.09,16.31s-19.6,11.44-20.92,9.55,5.94-9.28,16.14-16.4S1872.94,490.58,1874.26,492.48Z" transform="translate(0)"/><path class="cls-13" d="M1874.3,492.54l0,0s-20.45,17.3-28.88,19.07l2.61,3.54a110.18,110.18,0,0,0,10.17-6.33C1868.25,501.75,1875.41,494.53,1874.3,492.54Z" transform="translate(0)"/><path class="cls-7" d="M1901.62,542.79c0,3-1.11,15.86-22.53,21.24,1.41,1.92,2.79,3.85,4.15,5.81,13.57-4,19.66-11,22.4-16.27.44-.84,1-2,1.31-2.84Q1904.24,546.8,1901.62,542.79Z" transform="translate(0)"/><polygon class="cls-7" points="1881.01 560.22 1849.48 559.09 1856.95 565.43 1852.49 573.53 1882.33 565.93 1881.01 560.22"/><polygon class="cls-7" points="1883.88 567.55 1872.68 587.07 1880.56 584.07 1883.6 590.26 1888.86 569.74 1883.88 567.55"/><path class="cls-14" d="M1888.16,572.84a10.36,10.36,0,1,1,9.3-11A10.2,10.2,0,0,1,1888.16,572.84Z" transform="translate(0)"/><polygon class="cls-3" points="634.05 475.27 630.39 484.52 637.36 491.89 632.51 501.96 642.36 507.52 637.38 519.15 645.81 525.39 642.86 537.36 638.32 536.24 640.53 527.29 631.64 520.71 636.42 509.53 626.41 503.87 631.76 492.76 624.95 485.56 628.35 477 622.89 473.21 625.56 469.37 634.05 475.27"/><polygon class="cls-5" points="497.34 713.56 506.55 717.3 513.98 710.39 524.01 715.32 529.65 705.53 541.24 710.6 547.55 702.22 559.5 705.28 558.34 709.8 549.4 707.52 542.75 716.36 531.61 711.48 525.87 721.44 514.8 716 507.55 722.75 499.01 719.27 495.18 724.7 491.37 722 497.34 713.56"/><path class="cls-14" d="M570.38,862.38l-57.15,8.15a10.22,10.22,0,0,1-11.56-8.68L497,829a10.24,10.24,0,0,1,8.68-11.57l57.15-8.15a10.22,10.22,0,0,1,11.56,8.68l4.7,32.9A10.24,10.24,0,0,1,570.38,862.38Z" transform="translate(0)"/><path class="cls-1" d="M552.58,839a2.28,2.28,0,0,0,.83-2.08,2.24,2.24,0,0,0-1.38-1.76L529.26,826a2.25,2.25,0,0,0-2.22.31,2.28,2.28,0,0,0-.83,2.08l3.47,24.29a2.24,2.24,0,0,0,1.38,1.76,2.21,2.21,0,0,0,2.21-.32Z" transform="translate(0)"/><polygon class="cls-3" points="533.16 653.86 521.57 643.03 506.57 649.09 494.44 636.03 480.45 647.41 466.08 633.25 451.91 642.14 435.85 630.78 440.15 624.7 452.16 633.2 467.11 623.82 480.93 637.43 495.15 625.86 508.54 640.26 523.18 634.35 533.93 644.38 542.73 638.49 546.88 644.67 533.16 653.86"/><rect class="cls-13" x="785.5" y="796.54" width="909.39" height="565.55" rx="41.15"/><rect class="cls-15" x="980.57" y="647.77" width="519.26" height="863.1" rx="18.01" transform="translate(2319.52 -160.88) rotate(90)"/><rect class="cls-11" x="1079.96" y="858.09" width="540.89" height="447.23"/><path class="cls-11" d="M926.7,1528.31H721.51c-14.13,0-25.59,11.88-25.59,26.54h0c0,14.65,11.46,26.53,25.59,26.53H926.72A52.64,52.64,0,0,1,926.7,1528.31Z" transform="translate(0)"/><path class="cls-13" d="M525.43,1596.73h0a4,4,0,0,0,4,4H2017.43v-7.89H529.38A3.94,3.94,0,0,0,525.43,1596.73Z" transform="translate(0)"/><path class="cls-16" d="M1158.73,1361.57h72.78l-2.79-12.09,19.84-88.37,28.07-174.68-89.05-25.5-23.56,61s-15.37,145.62-6.42,232.78A68.45,68.45,0,0,0,1158.73,1361.57Z" transform="translate(0)"/><polygon class="cls-12" points="1334.43 1361.57 1330.12 1349.35 1321.41 1132.05 1301.2 1064.11 1198.97 1066.21 1196.17 1120.13 1264.39 1361.57 1334.43 1361.57"/><polygon class="cls-12" points="1346.37 1306.28 1342.05 1294.07 1333.34 1076.77 1313.13 1008.83 1210.9 1010.93 1208.1 1064.85 1276.33 1306.28 1346.37 1306.28"/><path class="cls-9" d="M1209.14,819.69,1105.5,879.57l-33.45-115.63-36.79,2.55s20.89,167.88,39.65,179.64c23.89,15,111.41-17.39,111.41-17.39Z" transform="translate(0)"/><path class="cls-1" d="M1290,814.9s34.23,4.32,42.22,10.19c9,6.61,36.88,37.45,36.88,37.45s-58,166.2-55.78,195.77,8.61,73.37,8.61,73.37-112.67,7.11-155.34-9.74c0,0,13.47-67,13.47-84.59s19.81-191,25.2-200.24,40.51-23.23,40.51-23.23Z" transform="translate(0)"/><path class="cls-9" d="M1135.35,1262c-.72-3.53,23.16-171.22,23.64-177.17,4.83-59.06,27-238.6,47.73-263.55,2.49-2.32,8.67-4.26,15.46-5.09,11.39-1.39,23.63-2.33,23.63-2.33s-14.49,11.45-17.94,16.34c-15.48,21.89-21.8,47.29-25.22,74.35-9.9,78.5-18.91,364.73-22.43,366C1176.29,1272,1137,1269.86,1135.35,1262Z" transform="translate(0)"/><path class="cls-16" d="M1281.61,662.75s20.62-13.94,29.34,10.48a45.14,45.14,0,0,1,8.27.22c4.24,1.43,8.34,5.85,12.12,8.27,13.47,8.62,19.67,25.37,20.41,40.75.89,18.67-6.83,32.32-19.1,45.8-3.62,4-7.49,7.85-12.22,10.39-5.72,3.06-10.23.63-15.61,1.93-4.52,1.09-6.11,5.87-11.44,4.15-7.48-2.42-15.33-11.78-24.6-10.39s-30.63-7-30.69-7c-27.46-10.71-8.92-63.87-3.65-82.73C1239.39,666.91,1264.61,656.34,1281.61,662.75Z" transform="translate(0)"/><path class="cls-2" d="M1256.79,783.53,1249.66,803l-3.85,10.88s-.26,19.47,4.28,24.51c7.81,8.69,40-23.49,40-23.49l10.18-61.23Z" transform="translate(0)"/><path class="cls-14" d="M1296.92,773.51c-12.23,19-33.28,27.61-47.33,29.67l7.2-19.65,43.43-29.86Z" transform="translate(0)"/><path class="cls-2" d="M1291.87,690.77A30.75,30.75,0,0,0,1247.3,706a232.3,232.3,0,0,0-8.81,28.29c-6.27,26.13,1.68,54.67,13.59,57.3s48.6-7.08,58-44.07C1315.92,724.7,1309.05,701.28,1291.87,690.77Z" transform="translate(0)"/><path class="cls-2" d="M1300.67,748.55c-1.28,5.79,1.52,11.33,6.25,12.37s9.61-2.8,10.89-8.59-1.52-11.32-6.26-12.37S1302,742.76,1300.67,748.55Z" transform="translate(0)"/><path class="cls-9" d="M1290,814.9s50,4.92,62.77,13.29c8.09,5.32,1.76,64.6,1.76,64.6s-11.45,89.55-9.86,134.79q.22,6.57.65,12.89c4.44,68.08,40.83,231.11,37.66,234-20.49,11.43-132.34,11-133.63,1.92C1238.44,1199.78,1290,814.9,1290,814.9Z" transform="translate(0)"/><path class="cls-13" d="M1344.61,1023.92c0,1.25.06,2.47.1,3.66q.22,6.45.63,12.68l-68.11-31.73Z" transform="translate(0)"/><path class="cls-17" d="M1203.83,958.42a69.85,69.85,0,0,1,8.67,4.63c2.74,1.85,5.83,2.68,8.36,3.89,5,2.39,8.67,4.2,8.65,3.94s1.3-.54-1.21-2.27c-3-2.08-10.37-5.12-14.57-8.51-2.39-1.92-7.6-5.65-7.6-5.65s-6.87-7.05-6.6-7.58c1.48-2.83,7.5.72,10.41,3.74,2.82,1,8.2,5.08,8.2,5.08s12.69,5.87,13.51,4.13c.35-.74-7-5.25-13.58-10.77-6.09-5.12-11.41-11.26-10.6-12.57,1.37-2.23,8.73,2.77,8.73,2.77s5,3.76,6.71,4.89c2,1.32,8.46,4.83,8.46,4.83s22.88,11.21,23.51,9.49.45-6.8-.74-8-4.26-2.5-5.66-3.4c-1.84-1.17-4.67-4.15-3.36-5.66s12.1,2.51,12.1,2.51,6.38,2.94,9.25,6.85c9.93,13.57,7.29,14.61,8.61,16.31,1.56,2,33.68,13.75,33.68,13.75s96.41,23.91,101.57,25.64l-12.82,38.88c-5.94-.83-113.84-44-124.79-49.17,0,0-15.21-1.42-24.74-2.62s-18.15-6.51-20.79-7.25a88.34,88.34,0,0,1-18.82-9.54c-8.41-5.56,2-4,2-4s17.38,7.59,17.71,6.15c.26-1.11-9.47-4.71-18.83-10.76-2.41-1.56-4.79-3.1-7-4.54C1196.65,959.85,1197.27,955.39,1203.83,958.42Z" transform="translate(0)"/><path class="cls-9" d="M1348.56,826.16s16.21,2.23,30.19,22.29,44.81,106.56,54.44,139.66c9.73,33.44,4.79,52-17.09,57.48s-138.87-37.06-138.87-37.06l10.94-40.12s77.51,17.14,80.25,15.8l-24.32-41.94S1325.05,874.39,1348.56,826.16Z" transform="translate(0)"/><path class="cls-8" d="M1263.44,757.69s15.71,5.12,17,10.89-.64,14.1-8.34,20.51-24.14,2.46-28.63-1.06-7.9-18.49-3.41-26.82S1263.44,757.69,1263.44,757.69Z" transform="translate(0)"/><path class="cls-2" d="M1268.57,769.76s-.1,6.43-2.24,7.58a19.93,19.93,0,0,1-7.16,2.3,10.26,10.26,0,0,1-9.6-4.36,8.73,8.73,0,0,1-.55-.93c-1.6-3.2-1.92-8.87-1.92-8.87s6.62-1.6,10.47-1S1268.57,769.76,1268.57,769.76Z" transform="translate(0)"/><polygon class="cls-10" points="1424.69 592.08 1415.46 590.53 1410.05 598.39 1399.83 595.92 1396.65 606.08 1384.96 603.79 1380.88 612.78 1369.28 612.42 1369.42 608.03 1378.09 608.3 1382.4 598.81 1393.63 601.01 1396.86 590.68 1408.14 593.41 1413.43 585.73 1421.98 587.17 1424.39 581.4 1428.45 583.09 1424.69 592.08"/><path class="cls-17" d="M632.39,1071.6a17.83,17.83,0,0,0,1.74,4.43c5,9.57,16.63,23.23,16.63,23.23l9-21.27s-1.46-6.67-4-16.22C647.06,1064.15,638.79,1065.53,632.39,1071.6Z" transform="translate(0)"/><path class="cls-16" d="M683.94,1053.16s-50.15,22.67-51.77,22.23c-1-.28-20.57-34.58-20.78-66.84-.09-14.9,14.65-32.83,31.1-29.28,8.28,1.78,8.15,4.2,20.4,22.89S683.94,1053.16,683.94,1053.16Z" transform="translate(0)"/><path class="cls-2" d="M726.74,1459.58s-1.19,20.67-1.19,20.71c-.44,2.63-2.16,9.11-2.16,11.5,0,9,40.55-7.61,31.46-11.58-.82-.36-5.13-3.08-5.4-6.13-.42-4.7-1.48-14.21-1.48-14.21Z" transform="translate(0)"/><path class="cls-8" d="M754.75,1480.12a146.14,146.14,0,0,1-14.4,3.43c-4.87.69-11.3-5.09-14.75-3.53-3.8,1.72-3.65,17.17-3.65,17.17s51,4.39,65.41-.15C793.05,1495.23,774.21,1486.51,754.75,1480.12Z" transform="translate(0)"/><path class="cls-2" d="M643.79,1459.58s-1.18,20.67-1.19,20.71c-.44,2.63-2.16,9.11-2.16,11.5,0,9,40.55-7.61,31.46-11.58-.82-.36-6.41-5.11-6.68-8.16-.42-4.7-.2-12.18-.2-12.18Z" transform="translate(0)"/><path class="cls-8" d="M671.8,1480.12a146.14,146.14,0,0,1-14.4,3.43c-4.87.69-11.3-5.09-14.75-3.53-3.79,1.72-3.95,17.17-3.95,17.17s51.29,5.12,65.71-.15C710,1495,691.26,1486.51,671.8,1480.12Z" transform="translate(0)"/><path class="cls-2" d="M656.19,1083.06l35.71-52.52c.15-.46.47-1.4,1-2.84,1.8-5.21,5.54-16.05,8.8-26.84l0-.12c1-3.77,3.19-10.34,5.29-16.71,2.34-7.07,5.23-15.85,5.34-17.34-.09-.26-.26-.72-.49-1.33-1.31-3.57-3.08-12.07-3.7-15.76-.4-2.35-.8-8.07,1.87-8.07,4.19,0,2.19,5.71,4.12,9.28a93.06,93.06,0,0,0,2.9-11.9l.7-11.17c.14-.84-.72-7,2.22-7h.14c2.64.21,2.58,6.76,3.68,17.83.35-1.27.69-2.81,1-4.22a41.78,41.78,0,0,1,.89-5.85c-.53-3.08-.22-8,2.91-7.49,1.57.23,1.44,7,1.44,7,0,.93-.11,8.12-.06,9.53.32-2.41,1.57-12.68,4-12.68,2,0,2.2,2.76,2.16,5,0,1.3-1.31,12.43-1.38,13.73,1-1.69,2.1-11.51,3-11.51,4,0,2.54,14,1.08,17.59a15.46,15.46,0,0,0-.45,2A35.46,35.46,0,0,1,735,962c-2.5,4.48-5.93,11.6-6.46,12.69-.38,2.23-1.58,10.23-3.08,20.29-.65,4.31-1.35,9-2.09,13.92h0c-.14,1.06-.88,4.43-3.71,17.05-3.86,17.28-4.27,18-4.44,18.34-1.68,3.12-40.18,58-41.82,60.35l-1,1.38Z" transform="translate(0)"/><path class="cls-14" d="M722.61,960.57s-2.9-7.78-8.06-7.8a5.7,5.7,0,0,1,5.36,1C722.38,955.79,722.61,960.57,722.61,960.57Z" transform="translate(0)"/><path class="cls-2" d="M647.56,945.54,643,976.06s17.52,14.76,27.73,11.65c8.57-2.62,2.69-14.37,2.69-14.37s-4.56-16.3-3.16-24.84S647.56,945.54,647.56,945.54Z" transform="translate(0)"/><path class="cls-18" d="M650.86,954.76a68.86,68.86,0,0,0,19.83,5.87c-.65-4.27-1-8.79-.47-12.13.65-3.94-4.13-4.87-9.46-4.74-7,.63-13.2,1.78-13.2,1.78l-.88,5.86A14.35,14.35,0,0,0,650.86,954.76Z" transform="translate(0)"/><path class="cls-2" d="M625.45,910.33c-.72,0,6.93,34.1,18.76,40s29.49,2.81,32.8-6.37c3.66-10.16-9.7-44.94-26.35-49.36S625.45,910.33,625.45,910.33Z" transform="translate(0)"/><path class="cls-16" d="M639.15,879a38.65,38.65,0,0,0-15.25,17.69c-4.44,2.21-9.81,7-12.39,19.87-3.17,15.84,8.1,28.05,20,31.72S645.38,960,645.38,960l1.33-8.64S644,943.55,640,939.66s1.9-9.56,2.42-14.19c.39-3.56-2.1-10.47-1.56-16.32,0,0,6.63-10.55,13.18-13.16C665.23,891.54,651.28,871.66,639.15,879Z" transform="translate(0)"/><path class="cls-2" d="M644.18,931.41c1.54,3.94.91,7.85-1.41,8.73s-5.47-1.59-7-5.53-.91-7.84,1.41-8.73S642.63,927.47,644.18,931.41Z" transform="translate(0)"/><path class="cls-17" d="M688.26,1083.9l68.89-11.79s-7.84-20.71-10.64-20.71S694.42,1074,694.42,1074l-3.92,8.26Z" transform="translate(0)"/><path class="cls-4" d="M653,1133.48s-6.87,34.88-4.07,61.32,3,120.38,3,120.38l-10.69,150.3,25.36.57s30.06-150.22,29.5-146.36,10.08-105.77,10.08-105.77l-35.84-83.74Z" transform="translate(0)"/><path class="cls-5" d="M658.53,1132s-4.48,31.4,1.12,45.17,48,148.91,48.6,159.92,14.67,132.8,14.67,132.8l29.49-.87,6.37-135.39-13.35-170.18-13-43Z" transform="translate(0)"/><path class="cls-2" d="M643,976.06s7.27,5,14,4.42,16.37-7.14,16.37-7.14l-1.33-4.75s-17.54-2.68-18-2.39S643,976.06,643,976.06Z" transform="translate(0)"/><path class="cls-17" d="M720.45,1050.38s26.06,25.81,37.82,21.4,16.63-19.47-12.07-41.51C720.52,1010.54,720.45,1050.38,720.45,1050.38Z" transform="translate(0)"/><path class="cls-13" d="M738.11,1082.25c-3.87-22.11-31.93-90.9-34.17-103.57-1.08-6.16-16.22-6.3-30.63-5.49-15.22.85-30.35,2.87-30.35,2.87s-13.48,2.32-19.41,8.15-7.5,22,1,52.59c6.73,24.17,15.07,37.44,19.2,55,.84,5.9,1.55,11.73,2.5,18.54,1.52,26.33,0,61.11,0,61.11s73.37,16,100.81-8.27C747.07,1163.23,742.08,1104.9,738.11,1082.25Z" transform="translate(0)"/><path class="cls-16" d="M756.82,1034.72s-28.79,24.94-30.47,24.94c-1.08,0-41.09-30.89-50.32-56.26-5.1-14,5.6-29.73,17.83-29.68,8.48,0,12.25,2.33,29,17.2S756.82,1034.72,756.82,1034.72Z" transform="translate(0)"/><path class="cls-13" d="M1648.63,460.41c3.82-18.68-5-37.19-21.76-44.14a40.52,40.52,0,0,0-11.31-28.57c-14.27-14.35-43.68-20.56-54.18-2.26-13.86,7.87-13,17.63-8.85,33.15-13.44,14-8.52,36.81,11.07,48.74-.31,15.66-.72,39.27,12.93,46,3.28,1.61,8.41,3.85,9.06,4.55-.86-.82,10.11,29.82,44.18,15.8C1664.53,519.33,1671.29,479.07,1648.63,460.41Z" transform="translate(0)"/><path class="cls-10" d="M1504.19,586.44c2.73-2.69,7.55-5.09,7.26-5.49-1.13-1.6-13,10.7-12.26,7.24.44-1.93,9-12,12-12.36s21.91-3.36,21.91-3.36l43.84-29.14s2.17-34.48-7.13-57.7c10.18-3.1,12.16-3.77,22.62-3,6,23.56,12.38,63.23,4.63,74.8-3.26,4.86-60.25,23.67-60.25,23.67s-12.33,4.65-14.63,4.79c-1.74.11-6.54-.29-8.89.07-5.33.83-11.92,8.75-12.37,7.84C1500.57,593.17,1501.39,589.2,1504.19,586.44Z" transform="translate(0)"/><path class="cls-14" d="M1564.46,482.87a156.1,156.1,0,0,1,8.36-13.66c4.27-7.62,15.3-11.47,15.3-11.47s3.7.07,7.93.28a3.51,3.51,0,0,0,.8,1.42c1.6,1.19,10.72-.35,16.62,3.66,19.76,17,14.3,99.39,12.74,125.41l-49.34.22s-3.26-55.64-15.49-70C1552.87,508.69,1558.35,494.17,1564.46,482.87Z" transform="translate(0)"/><path class="cls-19" d="M1550.93,772.74c-.53-1-7.39-17.51-13-24.88-8.13-10.69-78.47-107.55-75.58-131.13,1.27-10.29,31.75-19,35.36-19.64,19.4,2.6-1,19.3,13.59,33-9.47,3.24-15,7.29-13,9.95,8.2,10.67,51.74,96.6,53.63,97.71,8.43,4.94,11.74,2.65,11.74,2.65s-1.94,48.34-6,46.81S1556.9,783.73,1550.93,772.74Z" transform="translate(0)"/><path class="cls-7" d="M1567.23,740.73l-8.13,48.69c-1.83,6.31-4.91,6.24-5.7,5.39-1.62-1.74-2.36-14.74-2.56-22.13,3.67-11.28,3.32-32.52,1.06-34.91C1557.43,737.87,1567.22,739.65,1567.23,740.73Z" transform="translate(0)"/><path class="cls-2" d="M1538.15,621.41c-10.91-18.09-10.33-15.8-29.32-24-7.61,3.06-33.09,19-36.31,22L1513,648.79C1511.7,645.5,1525.81,629.19,1538.15,621.41Z" transform="translate(0)"/><path class="cls-2" d="M1591.59,429.87s3.31,23.7,5.62,29.47-12.71,18.08-25.2,21.82,3.82-12.73,3.3-18.89-2.79-35.32-2.79-35.32Z" transform="translate(0)"/><path class="cls-14" d="M1573.15,435.32c-.37-4.83-.63-8.37-.63-8.37l19.07,2.92s.48,2.78,1,6.72C1584.87,441.09,1577.92,439.67,1573.15,435.32Z" transform="translate(0)"/><path class="cls-2" d="M1585.61,386.56a21.65,21.65,0,0,1,12.15,8.81c4.65,7.1,7.83,28-7.46,37.79s-27.17-4.05-27.37-17.52S1565.61,384.19,1585.61,386.56Z" transform="translate(0)"/><path class="cls-2" d="M1559.44,411.42c1.3,3.25,3.89,5.27,5.77,4.51s2.37-4,1.06-7.27-3.89-5.27-5.78-4.5S1558.13,408.17,1559.44,411.42Z" transform="translate(0)"/><path class="cls-2" d="M1598,414.09c-1.11,3.51-.09,7,2.26,7.71s5.17-1.48,6.28-5,.1-6.95-2.26-7.71S1599.12,410.59,1598,414.09Z" transform="translate(0)"/><path class="cls-9" d="M1540.38,590.12c8.44-.78,36.37-3.62,36.37-3.62l49.55-6.66s8.75,20.92,9.1,34c.6,23-19,39.14-37,38-10.76-.66-67.28-1.49-85.12-1.36-2.46-18.7-5.28-40.85-17.89-54.31C1515.55,593.48,1528.92,591.17,1540.38,590.12Z" transform="translate(0)"/><path class="cls-2" d="M1539.75,763.3c-1.36-1.41-12.23-75.76-18.79-107a26.25,26.25,0,0,0-13.1-17.64l-35.34-19.29c-12.25,11.2,44.89,137,50.11,150.15,3.61,9.08,5.87,27.83,6.13,29,2.94,12.86-.89,14,2.77,16.65s20-44.25,20-44.25S1546.92,770.72,1539.75,763.3Z" transform="translate(0)"/><path class="cls-3" d="M1550.39,593.35h0a3.63,3.63,0,0,1-3.84,3.4l-60,.14c-2.13,0-4.26-1.83-5-4.11l1.09.73a3.65,3.65,0,0,1,3.84-3.4l60-.14A3.63,3.63,0,0,1,1550.39,593.35Z" transform="translate(0)"/><path class="cls-3" d="M1487.12,595.67a10.13,10.13,0,0,0,1.09-.07c3.1-.39,5.14-2.38,4.55-4.43l-22.92-79.28c-.59-2.06-3.59-3.41-6.7-3s-5.14,2.37-4.55,4.43l22.91,79.28C1482,594.4,1484.43,595.67,1487.12,595.67Z" transform="translate(0)"/><path class="cls-2" d="M1504.8,584.92c3.44-1.72,8.76-2.5,8.62-3-.59-1.89-15.86,7.85-14,4.79,1-1.7,12.36-10.34,15.35-9.76s21.87,3.6,21.87,3.6l48.82-17.65s9.31-30.36,7.66-55.32c10.64.2,18.07,2,27.76,6-1.62,24.24-7.82,64-18.77,72.55-4.61,3.61-64.63,3.84-64.63,3.84s-13.16.59-15.39,0c-1.69-.43-6.13-2.3-8.47-2.68-5.32-.87-14,4.62-14.2,3.61C1499.28,590.2,1501.29,586.68,1504.8,584.92Z" transform="translate(0)"/><path class="cls-7" d="M1589.69,481.14c.68-7.68,1.61-15.4,9.44-18.72a16.44,16.44,0,0,1,15,1.52c5.23,3.35,7.29,9.47,8,15.41a232.65,232.65,0,0,1,1.32,41.13c-9.69-4-22.88-1.89-33.51-2.09C1587.55,506.51,1588.8,491.14,1589.69,481.14Z" transform="translate(0)"/><path class="cls-2" d="M1512.06,577.68c-8.35,2.13-7.88,2-8.22,2.19-5.89,3.71-5.42,5.32,3.63,1.44a1.92,1.92,0,0,1,.72-.14l4.29.05a1.8,1.8,0,0,0,1.21-3.15h0A1.8,1.8,0,0,0,1512.06,577.68Z" transform="translate(0)"/><path class="cls-14" d="M1528.39,795.78a27.49,27.49,0,0,1-1.62,10.62c-2,4.73-9.56,6.51-7.73,9s16.47,0,16.47,0l16.94-41.43a3.83,3.83,0,0,0-1-4.45,31.15,31.15,0,0,0-11.65-6.08S1540.75,789.37,1528.39,795.78Z" transform="translate(0)"/><rect class="cls-9" x="1544.83" y="674.23" width="413.96" height="72.4" rx="12.56"/><path class="cls-5" d="M1891.12,775.41a9.7,9.7,0,1,1-9.7-9.7A9.7,9.7,0,0,1,1891.12,775.41Z" transform="translate(0)"/><path class="cls-5" d="M1920.88,775.41a9.7,9.7,0,1,1-9.7-9.7A9.7,9.7,0,0,1,1920.88,775.41Z" transform="translate(0)"/><path class="cls-5" d="M1949.64,775.41a9.7,9.7,0,1,1-9.7-9.7A9.7,9.7,0,0,1,1949.64,775.41Z" transform="translate(0)"/><path class="cls-12" d="M1936.71,710.44A29.76,29.76,0,1,1,1907,680.68,29.76,29.76,0,0,1,1936.71,710.44Z" transform="translate(0)"/><rect class="cls-13" x="1135.34" y="1338.95" width="213.1" height="23.14"/><path class="cls-3" d="M1870.52,1035.74c15.53-.88,24.37,17.8,13.88,29.37a11.66,11.66,0,0,0-3,7.61l-.23,9.65a5.11,5.11,0,0,1-4.82,5l-5.88.33a5.11,5.11,0,0,1-5.35-4.4c-1.31-9.62-1.11-13.27-5.11-16.79C1848.31,1056.17,1855,1036.61,1870.52,1035.74Z" transform="translate(0)"/><path class="cls-1" d="M1877.08,1076.14c-.78-7.8-1.34-16.41-1.44-19.64a23.49,23.49,0,0,1-8.6-.51c1,6.43,1.77,13,2.39,19.4l-.83.08c-.64-6.56-1.46-13.18-2.44-19.71-1.7-.49-3.66-1.16-4.6-2.63a3.07,3.07,0,0,1-.35-2.39c.57-2.1,3.13-2.12,4.41-.38.84,1.15,1,2.71,1.29,4.74a23,23,0,0,0,8.71.56,7.74,7.74,0,0,1,1.12-4.49c3.14-4.56,8.42,3.76-.27,5.21.07,2.52.61,11.37,1.44,19.68Zm.35-24.49a6.84,6.84,0,0,0-1,3.88c1.88-.33,3.08-1,3.66-2C1881.09,1051.89,1879.12,1049.19,1877.43,1051.65Zm-14.74-1.58a1.91,1.91,0,0,0-.42,2.62c.75,1.17,2.37,1.73,3.75,2.15-.24-1.6-.37-3-1.08-4C1864.44,1050.17,1862.78,1050,1862.69,1050.07Z" transform="translate(0)"/><path class="cls-4" d="M1881.44,1072.48c0,.08,0,.16,0,.24l-.23,9.65a5.11,5.11,0,0,1-4.82,5l-5.88.33a5.11,5.11,0,0,1-5.35-4.4c-.58-4.28-.87-7.38-1.36-9.81Z" transform="translate(0)"/><path class="cls-11" d="M1880.1,1026.43l2.66-9.18a1.68,1.68,0,0,0-3.22-.93l-2.65,9.18a1.67,1.67,0,0,0,3.21.93Z" transform="translate(0)"/><path class="cls-11" d="M1894.31,1044l9.58-3a1.68,1.68,0,0,0-1-3.2l-9.58,3a1.67,1.67,0,1,0,1,3.19Z" transform="translate(0)"/><path class="cls-11" d="M1910.67,1071.81a1.66,1.66,0,0,0-.52-2.3,54.8,54.8,0,0,0-9.28-4.66,1.68,1.68,0,1,0-1.21,3.13,51.36,51.36,0,0,1,8.71,4.36A1.66,1.66,0,0,0,1910.67,1071.81Z" transform="translate(0)"/><path class="cls-11" d="M1855.87,1031.37a1.67,1.67,0,0,0,.71-2.26,63.25,63.25,0,0,1-4.84-12.24,1.68,1.68,0,0,0-3.23.9,67.81,67.81,0,0,0,5.1,12.89A1.69,1.69,0,0,0,1855.87,1031.37Z" transform="translate(0)"/><path class="cls-11" d="M1848.61,1046.17a1.66,1.66,0,0,0-1.54-1.79l-10.84-.8a1.67,1.67,0,0,0-.24,3.34l10.83.79A1.66,1.66,0,0,0,1848.61,1046.17Z" transform="translate(0)"/><path class="cls-11" d="M1838,1076.91a2.23,2.23,0,0,0,.43-.16,52.76,52.76,0,0,0,9.26-6.35,1.67,1.67,0,0,0-2.18-2.54,48.94,48.94,0,0,1-8.67,5.94,1.68,1.68,0,0,0,1.16,3.11Z" transform="translate(0)"/><path class="cls-3" d="M865.93,1141.89c15.54-.87,24.38,17.8,13.88,29.38a11.76,11.76,0,0,0-3,7.6l-.23,9.66a5.1,5.1,0,0,1-4.81,5l-5.89.34a5.11,5.11,0,0,1-5.34-4.41c-1.32-9.62-1.11-13.26-5.12-16.79C843.72,1162.32,850.4,1142.77,865.93,1141.89Z" transform="translate(0)"/><path class="cls-1" d="M872.49,1182.3c-.78-7.8-1.34-16.42-1.44-19.65a23.43,23.43,0,0,1-8.59-.5c1,6.43,1.76,12.95,2.39,19.4l-.84.08c-.63-6.56-1.45-13.18-2.44-19.71-1.69-.49-3.66-1.16-4.59-2.63a3.08,3.08,0,0,1-.36-2.39c.58-2.1,3.14-2.12,4.41-.38.84,1.15,1,2.71,1.29,4.73a22.69,22.69,0,0,0,8.72.56,7.68,7.68,0,0,1,1.11-4.48c3.15-4.56,8.43,3.76-.27,5.2.08,2.53.61,11.38,1.44,19.69Zm.35-24.49a6.84,6.84,0,0,0-1,3.88c1.89-.34,3.09-1,3.67-2C876.51,1158.05,874.53,1155.35,872.84,1157.81Zm-14.74-1.58a1.89,1.89,0,0,0-.41,2.61c.74,1.18,2.36,1.74,3.75,2.16-.25-1.6-.38-3-1.09-4A3.35,3.35,0,0,0,858.1,1156.23Z" transform="translate(0)"/><path class="cls-4" d="M876.86,1178.63a1.94,1.94,0,0,0,0,.24l-.23,9.66a5.1,5.1,0,0,1-4.81,5l-5.89.34a5.11,5.11,0,0,1-5.34-4.41c-.59-4.28-.87-7.37-1.36-9.8Z" transform="translate(0)"/><path class="cls-11" d="M875.52,1132.58l2.66-9.17a1.68,1.68,0,1,0-3.22-.93l-2.66,9.17a1.68,1.68,0,1,0,3.22.93Z" transform="translate(0)"/><path class="cls-11" d="M889.73,1150.19l9.57-3a1.67,1.67,0,1,0-1-3.19l-9.58,3a1.68,1.68,0,0,0,1,3.2Z" transform="translate(0)"/><path class="cls-11" d="M906.09,1178a1.68,1.68,0,0,0-.53-2.31,55.13,55.13,0,0,0-9.28-4.65,1.67,1.67,0,0,0-1.21,3.12,52.16,52.16,0,0,1,8.71,4.37A1.67,1.67,0,0,0,906.09,1178Z" transform="translate(0)"/><path class="cls-11" d="M851.29,1137.53a1.67,1.67,0,0,0,.71-2.26,64.45,64.45,0,0,1-4.85-12.24,1.67,1.67,0,1,0-3.22.9,66.81,66.81,0,0,0,5.1,12.88A1.68,1.68,0,0,0,851.29,1137.53Z" transform="translate(0)"/><path class="cls-11" d="M844,1152.32a1.68,1.68,0,0,0-1.55-1.79l-10.83-.79a1.67,1.67,0,1,0-.25,3.34l10.84.79A1.67,1.67,0,0,0,844,1152.32Z" transform="translate(0)"/><path class="cls-11" d="M833.38,1183.06a1.35,1.35,0,0,0,.42-.16,51.81,51.81,0,0,0,9.26-6.34,1.67,1.67,0,1,0-2.17-2.54,49.25,49.25,0,0,1-8.67,5.93,1.68,1.68,0,0,0,1.16,3.11Z" transform="translate(0)"/><path class="cls-4" d="M1993.46,1536.09c.9-1.26-.47-2.72-2.56-2.72H1662.21c-25.77,0-46.65,14-46.65,31.28h0c0,17.27,20.88,31.27,46.65,31.27H1991c2.1,0,3.47-1.47,2.56-2.74h0C1980.54,1575.11,1980.57,1554.09,1993.46,1536.09Z" transform="translate(0)"/><path class="cls-11" d="M1990.84,1540.1H1770.3c-16.29,0-29.49,10.73-29.49,24v1.79c0,13.24,13.2,24,29.49,24h221C1981.43,1573.89,1981.32,1556,1990.84,1540.1Z" transform="translate(0)"/><path class="cls-11" d="M1668.56,1530.59h172.32c15.29,0,27.67-13.35,27.67-29.83h0c0-16.48-12.38-29.84-27.67-29.84H1668.56a48.53,48.53,0,0,1,1.23,58Z" transform="translate(0)"/><path class="cls-7" d="M1866.28,1500.76h0c0-16.48-12.53-29.84-28-29.84H1665.43a1.5,1.5,0,0,1-1.45-1.56h0a1.5,1.5,0,0,1,1.45-1.53h274.23c17.06,0,30.89,14.74,30.89,32.93h0c0,18.18-13.83,32.93-30.89,32.93H1665.43a1.5,1.5,0,0,1-1.45-1.53h0a1.51,1.51,0,0,1,1.45-1.57H1838.3C1853.75,1530.59,1866.28,1517.24,1866.28,1500.76Z" transform="translate(0)"/><path class="cls-3" d="M1713.89,1464.74h172.32c15.29,0,27.67-13.36,27.67-29.84h0c0-16.48-12.38-29.84-27.67-29.84H1713.89a48.53,48.53,0,0,1,1.23,58Z" transform="translate(0)"/><path class="cls-13" d="M1911.61,1434.9h0c0-16.48-12.53-29.84-28-29.84H1710.76a1.5,1.5,0,0,1-1.45-1.56h0a1.5,1.5,0,0,1,1.45-1.53H1985c17.06,0,30.89,14.74,30.89,32.93h0c0,18.19-13.83,32.93-30.89,32.93H1710.76a1.5,1.5,0,0,1-1.45-1.53h0a1.5,1.5,0,0,1,1.45-1.56h172.87C1899.08,1464.74,1911.61,1451.38,1911.61,1434.9Z" transform="translate(0)"/><path class="cls-20" d="M1878.5,1565.16h-18.44c-4,0-7.18,1.23-7.18,2.75v.24h25.62Z" transform="translate(0)"/><path class="cls-14" d="M1894.23,1572.05c0-3.8-4.82-6.89-10.76-6.89h-23.66c4.5,0,8.15,2.34,8.15,5.23l-.11,73.84,13.08-9.5,13.33,9.5Z" transform="translate(0)"/><path class="cls-4" d="M1721.94,1389.44l15.72-3.67a108.16,108.16,0,0,0,24.64-1.6,38.59,38.59,0,0,1,1.71,9.68c.09,1.13-1.52,6.73-2.64,6.9-4,.62-11.16-.08-23.8.21,0,0-19.89,2.35-30.53-1.16S1721.94,1389.44,1721.94,1389.44Z" transform="translate(0)"/><path class="cls-7" d="M1895.59,1132.18c.87,9.12,8.53,12.34,15.67,18.11,4.79,3.88,4,14.34.3,20.85-9.27,16.47-1.37,18.5,6.11,30.59,18,29.13-37.8,35.57-44.43,37.74s-11.11,4.8-15,4.37c-11.81-1.31-22.61-18.09-28.6-33.62s8.56-16.34,9.3-25.26-16.29-10.83-11.24-27.67c5.46-18.21,13.17-33.66,23.42-39.19,16.94-9.17,37.54.42,42.23,7.78A14.22,14.22,0,0,1,1895.59,1132.18Z" transform="translate(0)"/><path class="cls-11" d="M1896.9,1331.61c1.47,3.65,9.54,16.57,9.54,16.57l-113.33,1.13-1.77-23.25c31.12-.25,61.87-14,90.54-23.85C1882.61,1304,1896.19,1329.84,1896.9,1331.61Z" transform="translate(0)"/><path class="cls-5" d="M1816.56,1242.43s6.09-43,15.87-47.42,62.8,1.72,70.74,6.57-5.29,55.3-7.31,69.41c-.12.85-.26,1.69-.39,2.53a118.24,118.24,0,0,0,5.77,60.49c-29,8.81-36.53,13.66-67.63,12.79l-11.62-68S1812.76,1246,1816.56,1242.43Z" transform="translate(0)"/><path class="cls-2" d="M1874.53,1166.74s2.44,23.65,4.53,29.45-5.6,17.61-18.14,20.87-3.41-12.6-3.71-18.73-1.5-35.16-1.5-35.16Z" transform="translate(0)"/><path class="cls-14" d="M1874.83,1169.46a23.26,23.26,0,0,1-5.74,4.72c-4.73,2.8-9.07,3.41-12.81,2.55-.31-7.31-.57-13.56-.57-13.56l18.82,3.57S1874.64,1167.78,1874.83,1169.46Z" transform="translate(0)"/><path class="cls-2" d="M1870.14,1123.54a21.51,21.51,0,0,1,11.76,9.17c4.35,7.22,6.76,28.1-8.76,37.25s-26.83-5-26.54-18.37S1850.38,1120.47,1870.14,1123.54Z" transform="translate(0)"/><path class="cls-2" d="M1841.89,1146c.17,3.47,1.94,6.21,4,6.1s3.52-3,3.35-6.48-2-6.21-4-6.1S1841.72,1142.51,1841.89,1146Z" transform="translate(0)"/><path class="cls-2" d="M1881.47,1151.31c-1.23,3.44-.34,6.9,2,7.73s5.19-1.28,6.41-4.72.34-6.9-2-7.73S1882.69,1147.88,1881.47,1151.31Z" transform="translate(0)"/><path class="cls-4" d="M1903.17,1201.58s-9,4.74-14.59,18,13.34,80.74,17.36,85.06,15.16,5,17.06-5.57S1918.5,1204.92,1903.17,1201.58Z" transform="translate(0)"/><path class="cls-15" d="M1849.1,1192.54l15.59,93.59-60.67,9.79-19.26-87.55S1834.67,1188.16,1849.1,1192.54Z" transform="translate(0)"/><path class="cls-15" d="M1732,1195.43a32.7,32.7,0,0,1,18.23-1.67c11.35,2.22,29.4,6.82,36.64,14.61,10.93,11.74,21,89.45,21,89.45l-47.16-10.57L1732,1195.43Z" transform="translate(0)"/><path class="cls-3" d="M1894.26,1355.53c-7.93-22-97.8-102.2-121.58-96l12.77,48.89s26.43,80.31,52.86,89.86,50.66-1.32,50.66-1.32S1902.18,1377.55,1894.26,1355.53Z" transform="translate(0)"/><path class="cls-2" d="M1862,1226.9c-1.12,2.24,6,6.23,8.1,7.74s10.69,0,10.69,0S1863.23,1224.41,1862,1226.9Z" transform="translate(0)"/><path class="cls-10" d="M1785.22,1331.68s-22.84,47.46-22.92,52.4c-.11,7.11-33,5.16-25.86,2.12,1.64-.7,6.82-3.33,7.22-3.67,2.12-1.83,21.07-60.76,21.07-60.76Z" transform="translate(0)"/><path class="cls-3" d="M1792.5,1274.92c-1.1-1.22-12.68-5.82-21.58,5.28s-26,97.5-26,97.5l21,2S1818.19,1303.25,1792.5,1274.92Z" transform="translate(0)"/><path class="cls-14" d="M1724.57,1210.13l27,78.76a8.71,8.71,0,0,0,7,5.88c25.33,3.58,38.54,5.4,38.54,5.4s4.94.26,10.18.33l58-6.19a8.92,8.92,0,0,0,7.62-10.58l-14.11-77.33a8.69,8.69,0,0,0-9.9-7.18l-55.78,9.37-14.66-.39-43.87-9.83C1727.93,1196.88,1722.3,1203.51,1724.57,1210.13Z" transform="translate(0)"/><path class="cls-2" d="M1842.57,1248.44s15.55,2.88,20.87,2.72a55.65,55.65,0,0,1,12.2,1.52s17.37,40.84,19.86,45.39c7.44,13.6,28.06,12,27.72.66-.27-9-35.5-65.52-44.86-65.24s-38.68-5.84-39.56-2.11c-.47,2,27,2.94,22.66,4.64-2.69,1.06-24.19-1.36-24.12,1.17s19.43,2.77,21.51,4.74-20.59-2.41-20.46,1.89c.07,2.16,20,.6,22.16,3.88C1861.46,1249.07,1840.92,1244.18,1842.57,1248.44Z" transform="translate(0)"/><path class="cls-2" d="M1737.65,1241.77a2.15,2.15,0,0,0-3,1.46c-.3,1.32-.37,2.92.62,4,2,2.09,15.56,4.1,15.63,2.08C1751,1247.73,1741.87,1243.6,1737.65,1241.77Z" transform="translate(0)"/><path class="cls-2" d="M1735,1247.06s-1.37,5.1-.19,5.14,15.91,1.5,16.57-.25S1736.89,1246,1735,1247.06Z" transform="translate(0)"/><path class="cls-2" d="M1734.36,1252.32s-.42,2.27.8,3.58,14.94.45,15.44-1.73S1734.85,1250.65,1734.36,1252.32Z" transform="translate(0)"/><path class="cls-2" d="M1736.46,1257.11a4.45,4.45,0,0,0,.67,2.48c.69.74,10.82-.29,11.82-2.45S1737.63,1254.88,1736.46,1257.11Z" transform="translate(0)"/><path class="cls-2" d="M1770.8,1376.89s-4.83,17.5-9.69,29.07c-3.18,7.58-4,15.13-6.1,18.91-5.32,9.56-14,10-20.93,4.2s2.36-30,2.36-30l21.81-30.69Z" transform="translate(0)"/><path class="cls-4" d="M1755,1424.87c1.87-3.36,2.73-9.69,5.13-16.38-3.34,1.94-8.94,3.4-12,2.59-11.16-3-11.72-12-11.72-12s-11.64,24.84-4.73,30.58S1749.69,1434.43,1755,1424.87Z" transform="translate(0)"/><polygon class="cls-7" points="1793.11 1208.59 1810.97 1301.04 1800.22 1300.4 1797.11 1300.17 1778.45 1208.2 1793.11 1208.59"/><path class="cls-11" d="M1855.34,1392.85c6.11,11.25,18.26,9.65,29.27,9.65,12.6,0,25.5-5.23,29.09-19.16,3.83-14.88-1.21-33.3-10-45-45.22-59.76-45.57-65.65-63.58-73.59-19.43-8.57-91.62,114.75-91.62,114.75l19.82,10.14S1798,1364.81,1817,1343c2.24-2.56,8.59-15.82,8.59-15.82S1851.29,1385.41,1855.34,1392.85Z" transform="translate(0)"/><path class="cls-14" d="M1003.49,1494.89a3.11,3.11,0,0,0-2.92-4.45H625.82c-29.37,0-53.18,22.91-53.18,51.17h0c0,28.27,23.81,51.18,53.18,51.18h374.86a3.13,3.13,0,0,0,2.92-4.48h0A104.05,104.05,0,0,1,1003.49,1494.89Z" transform="translate(0)"/><path class="cls-3" d="M1001.13,1500H781.69c-15.58,0-28.22,19.18-28.22,42.84h0c0,23.65,12.64,42.83,28.22,42.83H1002.3A104,104,0,0,1,1001.13,1500Z" transform="translate(0)"/><path class="cls-7" d="M877.2,1532.44H853c-5.2,0-9.42,1.23-9.42,2.74v.25H877.2Z" transform="translate(0)"/><path class="cls-14" d="M897.83,1539.32c0-3.8-6.32-6.88-14.11-6.88h-31c5.91,0,10.7,2.34,10.7,5.22l-.15,73.77,17.15-9.49,17.49,9.49Z" transform="translate(0)"/><path class="cls-8" d="M1030.14,1302.69l11.82-3.11-8,106.85-14.19.48,7.16-100.34A4.32,4.32,0,0,1,1030.14,1302.69Z" transform="translate(0)"/><path class="cls-3" d="M1035,1409.48a3.66,3.66,0,0,1-.81,0,4.73,4.73,0,0,1-3.88-5.22l7.86-100.47a4.32,4.32,0,0,1,4.62-4.22,4.74,4.74,0,0,1,3.88,5.22l-7.86,100.48A4.41,4.41,0,0,1,1035,1409.48Z" transform="translate(0)"/><path class="cls-3" d="M926.21,1414.83c0,.08,0,.15,0,.23h0c.37,4.08,3.54,7.14,7.07,6.82l99.83-8.93c3.54-.32,6.11-3.89,5.74-8,0-.17,0-.34-.07-.51Z" transform="translate(0)"/><path class="cls-2" d="M995.73,1522.76c-6.54,3.63-26.52-2.73-26.52-3.3-.29,5.46-22.37,58.91-22.37,58.91v16.44s45.52,2.17,44.86-1.85-3.1-1.41-12.18-9c-.81-.67-13.55-3.63-10.1-11.18C976.37,1557.58,991.13,1532.25,995.73,1522.76Z" transform="translate(0)"/><path class="cls-4" d="M945.36,1595.4h49.82c1.8-.18,2.22-1.64,1.58-2.53-1.31-1.83-10.85-6.15-17.27-9-11.18,1.3-30.83-3-32.63-5.54C942.13,1584.66,944.36,1595.19,945.36,1595.4Z" transform="translate(0)"/><path class="cls-13" d="M934.43,1484.39c-.67-2,42.89-20.51,44.84-18.4,3.45,3.74-23.57,73.88-23.57,73.88l31,9.48s32.27-81,30.92-95.85-17.51-31.67-52.54-20.89S934.43,1484.39,934.43,1484.39Z" transform="translate(0)"/><path class="cls-2" d="M1024.63,1532c-7.35-1.34-16.88-1.72-24.51-1.85.9,6.79,5.26,41.63,4.47,43.78a26.18,26.18,0,0,1-10.41,12.73s33.83,30.52,35.87,27-1.51-3.05-3.72-14.68c-.2-1-5.09-17.27-5.39-26C1020.36,1556.23,1024.38,1541.25,1024.63,1532Z" transform="translate(0)"/><path class="cls-9" d="M1013.78,1418c-4.72-2.51-17-2.6-30.44-1.73a308.88,308.88,0,0,0-77.18,15.15L889.44,1437l.06-17.14s-53.19-8.9-55,4.28c-2.79,19.85.67,60.15,18.39,69.15,55,27.93,132.18-44.52,132.46-35,.38,12.73,11.11,60.1,13.85,80.85,7.63.13,20.74.12,26.43-1.18C1026.7,1497.25,1027.21,1425.17,1013.78,1418Z" transform="translate(0)"/><path class="cls-4" d="M993.15,1587.35l38,30.38c1.51,1,2.76.13,2.83-1,.15-2.24-4.49-11.64-7.64-17.92-9.48-6.07-22-21.92-21.75-25C1000.6,1577.21,992.5,1586.55,993.15,1587.35Z" transform="translate(0)"/><path class="cls-16" d="M907.07,1252.32c-1.28-11.68-2.62-23.4-12.3-32-7.84-6.93-17.8-8.1-27.65-4.39-27.9,10.5-13.52,35.28-49.1,60.27-11.06,7.76-23.25,13.07-31.57,23.53-11.65,14.63-7.25,32.23,3.37,44,50.81,56.23,107.53-19.71,111.6-37.94C904.45,1292.25,907.89,1259.83,907.07,1252.32Z" transform="translate(0)"/><path class="cls-5" d="M896.75,1318a155.64,155.64,0,0,0-8.42-13.72c-4.31-7.65-15.43-11.52-15.43-11.52s-3.72.07-8,.28a3.43,3.43,0,0,1-.81,1.42c-1.6,1.2-10.8-.35-16.75,3.68-19.92,17.08-14.41,99.84-12.84,126l60.66.57s-7.65-56.24,4.68-70.69C908.43,1343.92,902.91,1329.33,896.75,1318Z" transform="translate(0)"/><path class="cls-2" d="M869.41,1264.74s-3.34,23.81-5.67,29.6,12.81,18.16,25.4,21.92-3.85-12.78-3.32-19,2.81-35.48,2.81-35.48Z" transform="translate(0)"/><path class="cls-14" d="M888,1270.21c.37-4.84.64-8.4.64-8.4l-19.22,2.93s-.49,2.8-1,6.75C876.18,1276,883.19,1274.58,888,1270.21Z" transform="translate(0)"/><path class="cls-2" d="M875.43,1221.24a21.86,21.86,0,0,0-12.25,8.84c-4.68,7.14-7.89,28.16,7.52,38s27.39-4.07,27.59-17.6S895.59,1218.85,875.43,1221.24Z" transform="translate(0)"/><path class="cls-2" d="M901.81,1246.21c-1.31,3.27-3.92,5.29-5.82,4.53s-2.38-4-1.07-7.3,3.93-5.29,5.83-4.53S903.13,1243,901.81,1246.21Z" transform="translate(0)"/><path class="cls-16" d="M877.71,1220.8s-9.66,21.66-18.14,23.59-8.37,12.84-8.37,12.84.19-25.17,8.14-31S877.71,1220.8,877.71,1220.8Z" transform="translate(0)"/><path class="cls-2" d="M862.94,1248.9c1.11,3.51.09,7-2.29,7.73s-5.21-1.48-6.32-5-.1-7,2.28-7.74S861.82,1245.38,862.94,1248.9Z" transform="translate(0)"/><path class="cls-2" d="M971.44,1405.29c-3.64-1.32-9.06-1.48-9-2,.37-1.95,16.45,4.29,14.28,1.45-1.21-1.58-13.25-7.18-16.17-6.25s-21.47,6.13-21.47,6.13l-50.94-11.94s-12.85-29.22-14.11-54.31c-10.62,1.43-17.86,4.06-27.09,9.19,4.45,24,15.28,62.9,27.24,70.2,5,3.08,65.15-3.67,65.15-3.67s13.24-.94,15.41-1.77c1.64-.63,5.87-3,8.17-3.66,5.22-1.48,14.53,2.23,14.56,1.21C977.52,1409.17,975.16,1406.63,971.44,1405.29Z" transform="translate(0)"/><path class="cls-6" d="M874.38,1311.59c-.49-7.72-3.42-15.18-11.64-17.58a16.63,16.63,0,0,0-14.87,3.26c-4.84,4-6.2,10.3-6.17,16.3a232.94,232.94,0,0,0,3.47,41.19c9.23-5.12,20-8.2,30.64-9.64C875.81,1345,875,1321.8,874.38,1311.59Z" transform="translate(0)"/><rect class="cls-15" x="817.11" y="537.32" width="561.88" height="60.93" rx="8.11"/><path class="cls-8" d="M1247.15,590.17H853.05a13.11,13.11,0,0,1-13.1-13.1v-18.8a13.11,13.11,0,0,1,13.1-13.1h394.1a13.12,13.12,0,0,1,13.1,13.1v18.8A13.12,13.12,0,0,1,1247.15,590.17ZM853.05,548.8a9.49,9.49,0,0,0-9.48,9.47v18.8a9.49,9.49,0,0,0,9.48,9.47h394.1a9.48,9.48,0,0,0,9.47-9.47v-18.8a9.48,9.48,0,0,0-9.47-9.47Z" transform="translate(0)"/><path class="cls-8" d="M1316.13,573.76A15.78,15.78,0,1,1,1331.9,558,15.79,15.79,0,0,1,1316.13,573.76Zm0-27.92A12.15,12.15,0,1,0,1328.28,558,12.16,12.16,0,0,0,1316.13,545.84Z" transform="translate(0)"/><path class="cls-8" d="M1336.8,589.44l-14.12-18.94a1.81,1.81,0,0,1,2.79-2.29l.12.13L1341.46,586a2.91,2.91,0,1,1-4.33,3.9,1.63,1.63,0,0,1-.17-.2Z" transform="translate(0)"/><rect class="cls-15" x="1169.46" y="421.57" width="4.94" height="28.71" transform="translate(512.42 1498.23) rotate(-78.57)"/><rect class="cls-15" x="1169.71" y="494.38" width="30.23" height="4.94" transform="matrix(0.85, -0.53, 0.53, 0.85, -82.61, 707.3)"/><rect class="cls-15" x="1217.47" y="371.8" width="4.94" height="31.56" transform="translate(-51.48 239.39) rotate(-10.98)"/><polygon class="cls-15" points="1221.7 401.91 1271.52 414.72 1288.78 460.32 1284.16 462.07 1267.81 418.87 1223.2 407.4 1189.59 440.95 1200.82 487.67 1196.02 488.82 1184.14 439.41 1221.7 401.91"/><path class="cls-6" d="M1275.45,459.66a11.94,11.94,0,1,1,9.67,13.85A11.95,11.95,0,0,1,1275.45,459.66Z" transform="translate(0)"/><path class="cls-6" d="M1258.6,413.16a11.94,11.94,0,1,1,9.67,13.85A11.94,11.94,0,0,1,1258.6,413.16Z" transform="translate(0)"/><circle class="cls-6" cx="1222.34" cy="404.5" r="11.95" transform="translate(65.03 968.73) rotate(-44.3)"/><path class="cls-6" d="M1203.71,365.63a11.95,11.95,0,1,1,9.68,13.85A12,12,0,0,1,1203.71,365.63Z" transform="translate(0)"/><path class="cls-6" d="M1138.59,428.54a11.94,11.94,0,1,1,9.67,13.85A11.94,11.94,0,0,1,1138.59,428.54Z" transform="translate(0)"/><path class="cls-6" d="M1154,504.49a11.94,11.94,0,1,1,9.67,13.85A11.95,11.95,0,0,1,1154,504.49Z" transform="translate(0)"/><path class="cls-6" d="M1173.1,437.6a11.94,11.94,0,1,1,9.67,13.84A11.95,11.95,0,0,1,1173.1,437.6Z" transform="translate(0)"/><path class="cls-6" d="M1185.86,486.72a11.94,11.94,0,1,1,9.68,13.85A11.95,11.95,0,0,1,1185.86,486.72Z" transform="translate(0)"/><path class="cls-11" d="M1548.57,1627.07l-141-39.42a13.34,13.34,0,0,1-9.25-16.43L1454.85,1369a13.33,13.33,0,0,1,16.43-9.25l141,39.42a13.33,13.33,0,0,1,9.26,16.43L1565,1617.82A13.34,13.34,0,0,1,1548.57,1627.07Z" transform="translate(0)"/><path class="cls-9" d="M1597.69,1433.08,1471,1397.66a3.83,3.83,0,0,1-2.65-4.72h0a3.82,3.82,0,0,1,4.71-2.65l126.71,35.42a3.82,3.82,0,0,1,2.65,4.71h0A3.82,3.82,0,0,1,1597.69,1433.08Z" transform="translate(0)"/><path class="cls-9" d="M1570.81,1441.76l-104-29.08a3.82,3.82,0,0,1-2.65-4.71h0a3.82,3.82,0,0,1,4.71-2.66l104,29.08a3.83,3.83,0,0,1,2.66,4.72h0A3.83,3.83,0,0,1,1570.81,1441.76Z" transform="translate(0)"/><path class="cls-9" d="M1589.29,1463.13l-126.71-35.43a3.82,3.82,0,0,1-2.65-4.71h0a3.82,3.82,0,0,1,4.71-2.66l126.71,35.42a3.83,3.83,0,0,1,2.65,4.72h0A3.82,3.82,0,0,1,1589.29,1463.13Z" transform="translate(0)"/><path class="cls-9" d="M1556.18,1470.07l-97.8-27.34a3.83,3.83,0,0,1-2.65-4.72h0a3.82,3.82,0,0,1,4.71-2.65l97.8,27.34a3.82,3.82,0,0,1,2.65,4.71h0A3.82,3.82,0,0,1,1556.18,1470.07Z" transform="translate(0)"/><path class="cls-13" d="M1489.38,1352.07l-2.55-.71a1.71,1.71,0,0,0-2.15,1.12l-5.36,19.19a1.71,1.71,0,0,0,1.25,2.08l2.55.71a1.72,1.72,0,0,0,2.15-1.12l5.36-19.2A1.71,1.71,0,0,0,1489.38,1352.07Z" transform="translate(0)"/><path class="cls-13" d="M1500.29,1355.12l-2.55-.71a1.71,1.71,0,0,0-2.15,1.12l-5.36,19.19a1.71,1.71,0,0,0,1.25,2.08l2.55.71a1.71,1.71,0,0,0,2.15-1.12l5.37-19.2A1.72,1.72,0,0,0,1500.29,1355.12Z" transform="translate(0)"/><path class="cls-13" d="M1511.21,1358.17l-2.55-.71a1.71,1.71,0,0,0-2.15,1.12l-5.37,19.2a1.72,1.72,0,0,0,1.26,2.07l2.55.71a1.7,1.7,0,0,0,2.14-1.12l5.37-19.19A1.71,1.71,0,0,0,1511.21,1358.17Z" transform="translate(0)"/><path class="cls-13" d="M1522.12,1361.22l-2.55-.71a1.72,1.72,0,0,0-2.15,1.12l-5.36,19.2a1.71,1.71,0,0,0,1.25,2.07l2.55.71a1.71,1.71,0,0,0,2.15-1.12l5.36-19.19A1.71,1.71,0,0,0,1522.12,1361.22Z" transform="translate(0)"/><path class="cls-13" d="M1533,1364.27l-2.55-.71a1.72,1.72,0,0,0-2.15,1.12l-5.36,19.2a1.71,1.71,0,0,0,1.25,2.07l2.55.72a1.73,1.73,0,0,0,2.15-1.13l5.37-19.19A1.73,1.73,0,0,0,1533,1364.27Z" transform="translate(0)"/><path class="cls-13" d="M1544,1367.32l-2.55-.71a1.72,1.72,0,0,0-2.15,1.12l-5.37,19.2a1.71,1.71,0,0,0,1.26,2.07l2.55.72a1.7,1.7,0,0,0,2.14-1.13l5.37-19.19A1.71,1.71,0,0,0,1544,1367.32Z" transform="translate(0)"/><path class="cls-13" d="M1554.86,1370.37l-2.55-.71a1.72,1.72,0,0,0-2.15,1.12l-5.37,19.2a1.72,1.72,0,0,0,1.26,2.07l2.55.72a1.72,1.72,0,0,0,2.15-1.13l5.36-19.19A1.72,1.72,0,0,0,1554.86,1370.37Z" transform="translate(0)"/><path class="cls-13" d="M1565.77,1373.42l-2.55-.71a1.72,1.72,0,0,0-2.15,1.12l-5.36,19.2a1.71,1.71,0,0,0,1.25,2.07l2.55.72a1.72,1.72,0,0,0,2.15-1.13l5.37-19.19A1.74,1.74,0,0,0,1565.77,1373.42Z" transform="translate(0)"/><path class="cls-13" d="M1576.69,1376.48l-2.55-.72a1.71,1.71,0,0,0-2.15,1.13l-5.37,19.19a1.73,1.73,0,0,0,1.26,2.08l2.55.71a1.71,1.71,0,0,0,2.14-1.12l5.37-19.2A1.71,1.71,0,0,0,1576.69,1376.48Z" transform="translate(0)"/><path class="cls-13" d="M1587.6,1379.53l-2.55-.72a1.72,1.72,0,0,0-2.15,1.13l-5.37,19.19a1.74,1.74,0,0,0,1.26,2.08l2.55.71a1.72,1.72,0,0,0,2.15-1.12l5.36-19.2A1.71,1.71,0,0,0,1587.6,1379.53Z" transform="translate(0)"/><path class="cls-13" d="M1598.51,1382.58l-2.55-.72a1.72,1.72,0,0,0-2.15,1.13l-5.36,19.19a1.71,1.71,0,0,0,1.25,2.08l2.55.71a1.72,1.72,0,0,0,2.15-1.12l5.37-19.2A1.72,1.72,0,0,0,1598.51,1382.58Z" transform="translate(0)"/><path class="cls-13" d="M1609.43,1385.63l-2.55-.71a1.71,1.71,0,0,0-2.15,1.12l-5.37,19.19a1.71,1.71,0,0,0,1.25,2.08l2.56.71a1.71,1.71,0,0,0,2.14-1.12l5.37-19.2A1.71,1.71,0,0,0,1609.43,1385.63Z" transform="translate(0)"/><path class="cls-7" d="M1258,1560.61l134.69-2.79a3.25,3.25,0,0,0,.88-.15l24.2-8a3,3,0,0,0-.08-5.78l-24.85-7.47a2.91,2.91,0,0,0-.93-.13l-135,2.79a3,3,0,0,0-3,3.23l1,15.43A3,3,0,0,0,1258,1560.61Z" transform="translate(0)"/><path class="cls-3" d="M1392,1536.32h.34l24,7.21.29,6.55-22.94,7.55C1392.79,1551,1391.29,1543.4,1392,1536.32Z" transform="translate(0)"/><path class="cls-7" d="M1471.86,1590.64a9.3,9.3,0,0,1-6.86-2.7c-6.67-6.69-4.12-23.81-3.17-36.53.45-6,1-12.73-1.77-17.88-3.17-6-15.81-5.3-25.17-1-6.29,2.91-12.18,8.1-9.85,13.94a1.24,1.24,0,0,1-2.3.92c-2.49-6.23,1.77-12.78,11.11-17.11,10.54-4.88,24.4-5.49,28.4,2,3.06,5.78,2.53,12.92,2,19.22-.9,12.07-3.34,28.78,2.46,34.61a7.19,7.19,0,0,0,6.09,1.92c11.74-1,9.81-25.24,11.78-33.9,2.9-12.77,7.57-28.66,20.47-26.77,9.61,1.41,16.66,8.21,20.38,19.68a58.39,58.39,0,0,1,2.72,16.79,1.23,1.23,0,0,1-1.23,1.23h0a1.22,1.22,0,0,1-1.23-1.24,57.5,57.5,0,0,0-2.63-16.07c-3.46-10.63-9.64-16.66-18.36-17.94-11.22-1.64-15.19,13.81-17.69,24.87C1485,1564,1487.52,1590.64,1471.86,1590.64Z" transform="translate(0)"/><path class="cls-3" d="M853.41,639l-7.74-6.78-10,2.54a1.42,1.42,0,0,1-1.65-1.93l4.06-9.46-5.49-8.7a1.42,1.42,0,0,1,1.32-2.17l10.25.94,6.58-7.92a1.42,1.42,0,0,1,2.47.6l2.27,10,9.56,3.81a1.41,1.41,0,0,1,.2,2.53l-8.84,5.27L855.75,638A1.41,1.41,0,0,1,853.41,639Z" transform="translate(0)"/><path class="cls-14" d="M808.38,504.52l-7.74-6.78-10,2.54a1.42,1.42,0,0,1-1.65-1.93l4.05-9.46-5.49-8.7A1.42,1.42,0,0,1,788.9,478l10.25.94,6.58-7.92a1.42,1.42,0,0,1,2.47.59l2.28,10,9.56,3.81a1.41,1.41,0,0,1,.2,2.53l-8.84,5.27-.67,10.27A1.42,1.42,0,0,1,808.38,504.52Z" transform="translate(0)"/></svg>