<svg id="_Layer_" data-name="&lt;Layer&gt;" xmlns="http://www.w3.org/2000/svg" xmlns:xlink="http://www.w3.org/1999/xlink" viewBox="0 0 2452.5 2452.5"><defs><style>.cls-1{mask:url(#mask);}.cls-2,.cls-3{mix-blend-mode:multiply;}.cls-2{fill:url(#Áåçûìÿííûé_ãðàäèåíò_2);}.cls-3{fill:url(#Áåçûìÿííûé_ãðàäèåíò_11);}.cls-4{fill:#fff;}.cls-5{fill:#302282;opacity:0.57;}.cls-6{fill:#c63647;}.cls-7{fill:#ff4d57;}.cls-8{fill:#f4737f;}.cls-9{fill:#ff969b;}.cls-10{fill:#231866;}.cls-11{fill:#f38c65;}.cls-12{fill:#2e273f;}.cls-13{fill:#20186b;}.cls-14{fill:#5a3ece;}.cls-15{fill:#2f217f;}.cls-16{fill:#614dd6;}.cls-17{fill:#252254;}.cls-18{fill:#4f1d51;}.cls-19{fill:#362e6d;}.cls-20{fill:#161354;}.cls-21{fill:#181251;}.cls-22{fill:#2b1e77;}.cls-23{fill:#433b7f;}.cls-24{fill:#ade3f7;}.cls-25{mask:url(#mask-3);}.cls-26{isolation:isolate;fill:url(#Áåçûìÿííûé_ãðàäèåíò_10);}.cls-27{filter:url(#luminosity-noclip);}</style><filter id="luminosity-noclip" x="1008.05" y="-9418" width="736.76" height="32766" filterUnits="userSpaceOnUse" color-interpolation-filters="sRGB"><feFlood flood-color="#fff" result="bg"/><feBlend in="SourceGraphic" in2="bg"/></filter><mask id="mask" x="1008.05" y="-9418" width="736.76" height="32766" maskUnits="userSpaceOnUse"><g class="cls-27"/></mask><linearGradient id="Áåçûìÿííûé_ãðàäèåíò_2" x1="1086.27" y1="1322.75" x2="1542.83" y2="801.41" gradientTransform="matrix(-1, 0, 0, 1, 2663.34, 0)" gradientUnits="userSpaceOnUse"><stop offset="0" stop-color="#fff"/><stop offset="1"/></linearGradient><linearGradient id="Áåçûìÿííûé_ãðàäèåíò_11" x1="1086.27" y1="1322.75" x2="1542.83" y2="801.41" gradientTransform="matrix(-1, 0, 0, 1, 2663.34, 0)" gradientUnits="userSpaceOnUse"><stop offset="0" stop-color="#fff"/><stop offset="0.17" stop-color="#fcfcfc"/><stop offset="0.3" stop-color="#f2f2f2"/><stop offset="0.42" stop-color="#e1e1e1"/><stop offset="0.53" stop-color="#cacaca"/><stop offset="0.63" stop-color="#ababab"/><stop offset="0.74" stop-color="#868686"/><stop offset="0.84" stop-color="#5a5a5a"/><stop offset="0.93" stop-color="#282828"/><stop offset="1"/></linearGradient><mask id="mask-3" x="1008.05" y="481.92" width="736.76" height="767.55" maskUnits="userSpaceOnUse"><g class="cls-1"><polygon class="cls-2" points="1744.82 939.39 1335.39 481.92 1008.05 1247.89 1173.83 1249.47 1744.82 939.39"/></g></mask><filter id="luminosity-noclip-3" x="1008.05" y="481.92" width="736.76" height="767.55" filterUnits="userSpaceOnUse" color-interpolation-filters="sRGB"><feFlood flood-color="#fff" result="bg"/><feBlend in="SourceGraphic" in2="bg"/></filter><linearGradient id="Áåçûìÿííûé_ãðàäèåíò_10" x1="1086.27" y1="1322.75" x2="1542.83" y2="801.41" gradientTransform="matrix(-1, 0, 0, 1, 2663.34, 0)" gradientUnits="userSpaceOnUse"><stop offset="0" stop-color="aqua"/><stop offset="0.17" stop-color="#03ffff"/><stop offset="0.3" stop-color="#0dffff"/><stop offset="0.42" stop-color="#1effff"/><stop offset="0.53" stop-color="#35ffff"/><stop offset="0.63" stop-color="#54ffff"/><stop offset="0.74" stop-color="#79ffff"/><stop offset="0.84" stop-color="#a5ffff"/><stop offset="0.93" stop-color="#d7ffff"/><stop offset="1" stop-color="#fff"/></linearGradient></defs><rect class="cls-4" width="2452.5" height="2452.5"/><rect class="cls-5" x="682.26" y="2043.27" width="1087.99" height="70.84" rx="18.93" transform="translate(2452.5 4157.37) rotate(180)"/><path class="cls-6" d="M1345.14,600.68l12.14.66a28.36,28.36,0,0,0,31-25.18l4.48-43.63a28.31,28.31,0,0,0-25.27-30.91l-13.37-.89c-15.48-1.58-16.07,10.64-17.65,26.07L1332,570.42C1330.43,585.85,1329.66,599.1,1345.14,600.68Z"/><path class="cls-7" d="M1330.77,599.11l26.3,2.68a15.12,15.12,0,0,0,16.52-13.45l7.15-69.74a15.11,15.11,0,0,0-13.46-16.53l-26.3-2.68a15.12,15.12,0,0,0-16.52,13.45l-7.16,69.74A15.12,15.12,0,0,0,1330.77,599.11Z"/><path class="cls-7" d="M1378.18,528.08a3.67,3.67,0,0,0,3.42-2.32c35.13-88.84-39.92-120.89-40.68-121.2a3.67,3.67,0,1,0-2.81,6.78c2.83,1.17,69.07,29.72,36.65,111.73a3.66,3.66,0,0,0,2.07,4.76A3.75,3.75,0,0,0,1378.18,528.08Z"/><path class="cls-8" d="M1235.41,675.25c-6.67-5.2-9.09-15.72-17.23-17.94-2.51-.67-5.32-.43-7.56-1.75-2.91-1.72-3.81-5.41-5-8.54-4.45-11.26-10.48-11.87-17.45-17.87l-1.64,9.48L1184.7,649c9.19,7.62,25.9,22.23,47.33,25.93C1233.16,675.07,1234.28,675.1,1235.41,675.25Z"/><path class="cls-9" d="M1266.43,675.17a16.48,16.48,0,0,0-2.3-1.46,85.45,85.45,0,0,1-28.72,1.54c7.51,5.83,18.91,3.92,27,8.51a83.53,83.53,0,0,1-32.1,1.16c-21.45-3.69-38.16-18.33-47.35-25.95,0,0,1.73-10,1.73-10S1172.84,724,1172.84,724c-8.49,35.8,80.76,40.49,91.51,5.33l18.08-49.73C1273.8,684.31,1273.43,680.88,1266.43,675.17Z"/><path class="cls-8" d="M1183,659c9.19,7.62,25.9,22.26,47.35,25.95a83.53,83.53,0,0,0,32.1-1.16c-8.1-4.59-19.5-2.68-27-8.51-1.13-.15-2.25-.18-3.38-.37-21.43-3.7-38.14-18.31-47.33-25.93L1183,659Z"/><path class="cls-10" d="M1382.63,520c-5.25-11.16,10.94-22.56,8.8-34.71-1.35-7.64-9.45-12.25-12.44-19.43-2.82-6.75-.69-14.62-2.62-21.68-3.56-13-19-18.62-26.72-29.65-6-8.54-8.6-25.88-29.41-33-3.13-1.06-6.71-1.69-9.63-.16a8.08,8.08,0,0,0-3,3.09c-1.36.59-1.54,1.46-2.26,2.81-2.69,5-10.44,7.6-17.6,3.69-2.83-4.85-5.71-9.67-9.75-13.51-6-5.69-15.67-8.72-22.54-4.14-5,3.32-7.13,9.59-11.53,13.65-14.71,13.57-43.69-4.36-56.82,10.76-7,8.06-4.33,20.3-1.28,30.51-5.12-4.65-12.78,3.21-13,10.12s2.13,14.68-2,20.24c-1.85,2.49-4.73,4-6.79,6.33-8.5,9.49-.62,30.95,8.18,37.53l.54-.45c-.2,5.25-.16,8.53-.16,8.53-3.68,32.94-4.82,62.52,13.39,88.91-2.68,5.73-8.16,10.86-6.73,16.93.6,2.52,2.36,4.63,3.11,7.12,2.41,8.06-4.41,13.69,3.9,20.82,7,6,13,6.62,17.44,17.86,1.24,3.15,2.15,6.83,5,8.56,2.24,1.32,5,1.07,7.56,1.75,8.15,2.21,10.56,12.74,17.22,17.92,7.51,5.85,18.92,3.92,27,8.52a15.45,15.45,0,0,1,2.3,1.47c7,5.7,7.37,9.12,16,4.44,10.42-5.67,12.87,1.26,20.79.16,5.49-.75,8.92-6.16,13.51-9.3,2.31-1.57,5-2.6,7.13-4.45a23.85,23.85,0,0,0,3.82-4.66c22.9-33.44,21.88-28.73,20.69-43.63,5.81-9.61,9.74-18.93,11-26.1l.2-1.12,1.43-8.28,2.24-13c-46,35-156.33-.08-144.08-66.56l1.83-10.6c4.94-1,11.47.46,13.44-4.57.93-2.4-.22-5.2.58-7.64,1.6-4.93,9.46-5.06,11.59-9.78,3.3-7.3-7.42-12.21-.16-20.07,11.92,14.45,38.66,19.07,58.18,15.75a40.63,40.63,0,0,0,27.62-6.28l3.49-.85c.31,2.56,3.55,4.94,6.5,4.75,3.8-.24,7.15-2.62,10.9-3.2,8.91-1.38,16.18,7.79,17.88,16.65,1.51,7.81,1.78,19.63,3.19,28.34-.73,5.32-.55,3.88-5.4,32,4.47-5,11.21-19.11,14.18-22.52,3.6-4.12,8-9.07,6.37-14.28C1385.06,523.55,1383.54,521.91,1382.63,520ZM1207.2,507c-5.23,30.23-4,28.19-10.71,42.49-2.66,5.67-.57,4.75,2.14,8.8q-.64,2.58-1.28,5.15C1163.73,555.59,1174.7,482.08,1207.2,507Z"/><path class="cls-9" d="M1370.52,530.62c-1.42-8.75-1.68-20.61-3.19-28.47-1.71-8.89-9-18.09-18-16.72-3.77.6-7.14,3-10.94,3.22-3,.19-6.22-2.2-6.52-4.77l-3.51.85a40.85,40.85,0,0,1-27.73,6.31c-19.92,3.39-46.62-1.49-58.43-15.82-7.28,7.9,3.48,12.83.16,20.16-2.14,4.74-10,4.86-11.64,9.82-.8,2.45.36,5.26-.58,7.67-2,5-8.54,3.57-13.5,4.59l-1.83,10.65c-11.22,60.89,88,105.94,144.68,66.82C1364.77,564.59,1369.61,537.27,1370.52,530.62Z"/><path class="cls-11" d="M1197.35,563.43q.63-2.56,1.28-5.15c-2.71-4-4.8-3.13-2.14-8.8,6.7-14.28,5.48-12.26,10.71-42.49C1174.7,482.08,1163.86,555.61,1197.35,563.43Z"/><path class="cls-10" d="M1260.29,536.93l12.42,2.1a14.13,14.13,0,0,1,.81,6.81l-16.21-1.4A12.29,12.29,0,0,1,1260.29,536.93Z"/><path class="cls-10" d="M1248.24,513.09a5.54,5.54,0,0,0,.89,4.23,31.17,31.17,0,0,1,44,1.34,5.54,5.54,0,0,0,1.15-4.15C1298.86,496.7,1245.21,496.68,1248.24,513.09Z"/><path class="cls-10" d="M1318.46,528.45a5.49,5.49,0,0,0,.74,4.27,31.16,31.16,0,0,1,44,3,5.62,5.62,0,0,0,1.28-4.11C1369.49,514.44,1316,511.82,1318.46,528.45Z"/><path class="cls-10" d="M1345.84,551.39a14.22,14.22,0,0,1,.63,7.67l-16.21-2.39a13,13,0,0,1,3-7.4Z"/><path class="cls-8" d="M1315.75,598.87a4.44,4.44,0,1,1-8.86.67l-3.49-46.39a4.45,4.45,0,0,1,8.87-.68Z"/><path class="cls-8" d="M1315.45,601.53c-1,5.58-7.39,2.42-26.77-.92a3.66,3.66,0,0,1,1.24-7.16c19.38,3.33,26.49,2.51,25.53,8.08Z"/><path class="cls-12" d="M1357.87,583.32l-29.13-4.16a15.68,15.68,0,0,1-13.36-17.74l3.63-25.28a15.75,15.75,0,0,1,17.81-13.32l29.12,4.15a15.71,15.71,0,0,1,13.36,17.74l-3.62,25.3a15.66,15.66,0,0,1-17.81,13.31Zm-29.4-53.12a10.15,10.15,0,0,0-4,6.71l-3.63,25.28a10.1,10.1,0,0,0,1.94,7.55,10.21,10.21,0,0,0,6.73,4l29.14,4.16a10.21,10.21,0,0,0,11.56-8.65l3.63-25.29a10.22,10.22,0,0,0-8.68-11.53L1336,528.27a10.34,10.34,0,0,0-1.46-.1A10.17,10.17,0,0,0,1328.47,530.2Z"/><path class="cls-12" d="M1283.19,570l-44.63-6.35a17.72,17.72,0,0,1-11.69-7.06,22.45,22.45,0,0,1-4-16.62l2-14.1c1.67-11.58,11.45-19.84,21.76-18.35l44.63,6.36a17.8,17.8,0,0,1,12.48,8.2,22.44,22.44,0,0,1,3.24,15.48l-2,14.09c-1.54,10.69-10,18.53-19.36,18.53A16,16,0,0,1,1283.19,570ZM1230.3,526.6l-2,14.11a17,17,0,0,0,3,12.54,12.26,12.26,0,0,0,8,4.91l44.63,6.36c7.44,1.07,14.28-5.11,15.51-13.68l2-14.09a17,17,0,0,0-2.42-11.72,12.39,12.39,0,0,0-8.62-5.75l-44.63-6.35a11.28,11.28,0,0,0-1.63-.12C1237.49,512.81,1231.45,518.66,1230.3,526.6Z"/><path class="cls-4" d="M1248.7,616.39l19.8,10.81a4.69,4.69,0,0,0,6.35-1.84l1.75-3.18a4.66,4.66,0,0,0-1.85-6.32L1255,605a4.7,4.7,0,0,0-6.35,1.85l-1.75,3.18A4.67,4.67,0,0,0,1248.7,616.39Z"/><rect class="cls-13" x="1166.82" y="1667.5" width="76.32" height="395.5" transform="translate(2409.97 3730.5) rotate(180)"/><rect class="cls-14" x="1172.37" y="1462.58" width="175.93" height="212.96" transform="translate(2520.67 3138.12) rotate(180)"/><rect class="cls-15" x="1039.62" y="1462.58" width="175.93" height="212.96" transform="translate(2255.17 3138.12) rotate(180)"/><path class="cls-16" d="M828.14,1480.63h426.4l-95.9-794.75a68.81,68.81,0,0,0-68.4-60.46H724.94Z"/><path class="cls-15" d="M841.9,1556.37h7.81c28.13,0,48.39-22.93,45-51l-100-829c-3.39-28-29.17-51-57.3-51h-7.81c-28.14,0-48.4,22.94-45,51l100,829C788,1533.44,813.77,1556.37,841.9,1556.37Z"/><polygon class="cls-17" points="1673.4 1237.8 971.15 1261.16 971.15 1380.1 1623.32 1380.1 1673.4 1237.8"/><path class="cls-4" d="M1294.68,1121.72c26.57-61.72,90.29-73.08,119.48-133.26,25.33-52.24.66-156.8-37.58-201.14l-.88-1c-98.82-78.53-130.12-50.62-197-53.8-3.78-.18-7.52-.27-11.26-.34-72.6-1.49-149.36,15.93-173.65,76.62-61.89,154.7-83.36,342.2-100.92,508.66-1.37,13-2.27,27.4,6.79,37.17a6.71,6.71,0,0,1,.7.27l244.76-65.22C1176.58,1289.67,1271.73,1175.08,1294.68,1121.72Z"/><path class="cls-4" d="M996.65,803.16c13.76-35,63.44-65.71,102.76-54.95,33.56,9.22,44.72,56.56,30.93,91.68-23.12,58.89-52,122.46-79.9,185.25L933.59,987C952.54,927,971.61,866.93,996.65,803.16Z"/><path class="cls-9" d="M868.11,1178.4c26.1-66.49,45.73-128.93,65.48-191.45l116.85,38.19c-19.83,44.61-39.18,88.83-55.61,130.68,92.73,5.13,211.29,37,306,35.93,89.45-1,84.32,84.41-5,85.4-128.58,1.41-228-17-356.6-15.58C897.59,1262,851.51,1220.67,868.11,1178.4Z"/><path class="cls-17" d="M1625.66,1415.21l-39.45-15.61c45.71-5.89,84-11.2,106.12-15.1a75,75,0,0,0,61.14-86.33c6.49,36-12,106.39-77.46,130.19-8.57,3.11-17.14,6-25.71,8.76C1647.35,1429,1639.19,1420.55,1625.66,1415.21Z"/><path class="cls-17" d="M876.27,1299.56a75,75,0,0,0,61.15,86.28c21,3.68,56.92,8.58,100.26,14.06l-34.25,13.54c-15,5.92-23.43,15.54-25.59,24.5q-12.06-3.9-24.1-8.26C888.37,1405.89,869.83,1335.64,876.27,1299.56Z"/><path class="cls-18" d="M1145.53,1451.11c13.67,1.81,31.28,1,53.36-3.38,10.64-2.15,56.37-7.8,116.48-15.07,65.11,7.55,115.19,13.52,126.23,15.72,17.74,3.56,32.33,4.74,44.22,4.16l84.48,5.13c-82.14,16.1-164.19,17.6-247,11.54-91.93,7.82-182.87,6.94-273.94-12.28l96.1-5.81Z"/><path class="cls-7" d="M1522.56,1407.63c22.18-2.75,43.63-5.44,63.65-8l39.45,15.61c13.53,5.34,21.69,13.76,24.64,21.91,4.65,12.89-3.73,25.16-25.17,23.86l-54.83-3.31-84.48-5.13C1524,1450.7,1533.39,1430.22,1522.56,1407.63Z"/><path class="cls-19" d="M1485.82,1452.54c-11.89.58-26.48-.6-44.22-4.16-11-2.2-61.12-8.17-126.23-15.72,61.4-7.38,137.8-16.45,207.19-25C1533.39,1430.22,1524,1450.7,1485.82,1452.54Z"/><path class="cls-7" d="M1003.43,1413.44l34.25-13.54,99.84-39.47c6.43-2.56,12.76-.81,13.22,3.64l.07.69c-50.21,28.86-60.53,79-5.28,86.35l-96.18,5.82-45.39,2.75c-20.35,1.22-29.05-9.64-26.12-21.74C980,1429,988.47,1419.36,1003.43,1413.44Z"/><path class="cls-15" d="M845.71,1555.67h600.9c32.4,0,58.91-26.41,58.91-58.7s-26.51-58.7-58.91-58.7H845.71a58.7,58.7,0,1,0,0,117.4Z"/><path class="cls-20" d="M875.63,2063c0-.7-.1-1.39-.1-2.13a38.76,38.76,0,0,1,38.74-38.58h381.41a38.76,38.76,0,0,1,38.73,38.58c0,.74-.06,1.43-.1,2.13Z"/><path class="cls-13" d="M1102,2063c0-.28,0-.57,0-.84a38.79,38.79,0,0,1,38.74-38.63h381.42a38.79,38.79,0,0,1,38.73,38.62c0,.28,0,.57,0,.85Z"/><path class="cls-6" d="M1173.51,582.49l12.14.66a28.35,28.35,0,0,0,31-25.18l4.47-43.63a28.29,28.29,0,0,0-25.26-30.91l-13.37-.89c-15.48-1.57-16.07,10.64-17.65,26.07l-4.48,43.63C1158.8,567.66,1158,580.92,1173.51,582.49Z"/><rect class="cls-7" x="1149.1" y="482.28" width="56.58" height="100.24" rx="15.07" transform="translate(2294.72 1181.45) rotate(-174.18)"/><path class="cls-21" d="M1017.32,1282.05h425.76a16.29,16.29,0,1,0,0-32.57H1017.32a16.29,16.29,0,1,0,0,32.57Z"/><path class="cls-22" d="M1183.57,1282.05h425.76a16.29,16.29,0,1,0,0-32.57H1183.57a16.29,16.29,0,1,0,0,32.57Z"/><path class="cls-19" d="M975.61,1240.75c20.09,4.74,42,9.53,66.48,14.66,32.77,6.87,65.41,13.43,97.92,20,30.74,6.23,61.37,12.56,91.86,19.2q40.29,8.79,80.27,18.64-19.5,4.9-38.93,10.22c-32.86,9-65.55,18.89-98.06,30.17a142.34,142.34,0,0,0-24.34,11.08l-.07-.69c-.46-4.45-6.79-6.2-13.22-3.64l-99.84,39.47c-43.34-5.48-79.28-10.38-100.26-14.06a75,75,0,0,1-61.15-86.28c6.22-36.83,38-62.23,73.69-62.52a75.84,75.84,0,0,1,18.56,2.06C970.81,1239.64,973.26,1240.19,975.61,1240.75Z"/><path class="cls-23" d="M1692.33,1384.5c-22.16,3.9-60.41,9.21-106.12,15.1-20,2.59-41.47,5.28-63.65,8-69.39,8.58-145.79,17.65-207.19,25-60.11,7.27-105.84,12.92-116.48,15.07-22.08,4.41-39.69,5.19-53.36,3.38-55.25-7.3-44.93-57.49,5.28-86.35a142.34,142.34,0,0,1,24.34-11.08c32.51-11.28,65.2-21.19,98.06-30.17q19.43-5.33,38.93-10.22,34.65-8.68,69.52-16.38c29.57-6.59,59.27-12.83,89.08-18.93,38.79-7.91,77.76-15.67,116.92-23.9,16.48-3.44,31.75-6.74,46.19-10,9.49-2.12,18.68-4.22,27.37-6.32,2.2-.53,4.39-.89,6.59-1.23,40.26-6.1,78.77,20.79,85.66,61.63A75,75,0,0,1,1692.33,1384.5Z"/><rect class="cls-24" x="1184.66" y="1261.05" width="29.36" height="8.73" rx="2.33" transform="translate(2398.69 2530.84) rotate(180)"/><rect class="cls-9" x="1136.56" y="728.75" width="156.78" height="55.03" rx="14.71" transform="translate(2429.9 1512.54) rotate(180)"/><path class="cls-7" d="M1204.2,1214.59l4.08-6.11-48.2-32a134.77,134.77,0,0,1-32.63-194.22l9.57-12.53a244.7,244.7,0,0,0,50-147.77V579.47h-7.36V821.94a237.36,237.36,0,0,1-48.54,143.33l-9.58,12.53A142.09,142.09,0,0,0,1156,1182.57Z"/><g class="cls-25"><g class="cls-25"><polygon class="cls-26" points="1744.82 939.39 1335.39 481.92 1008.05 1247.89 1173.83 1249.47 1744.82 939.39"/></g></g><path class="cls-22" d="M1173.83,1249.48h451.83l140.08-276.15a23.39,23.39,0,0,0-20.92-33.94H1354.18a37.52,37.52,0,0,0-33.46,20.52Z"/><path class="cls-16" d="M1067,1555.67h580c32.39,0,58.91-26.41,58.91-58.7s-26.52-58.7-58.91-58.7H1067a58.7,58.7,0,1,0,0,117.4Z"/><path class="cls-7" d="M1185.77,486.68a3.68,3.68,0,0,0,3.65-3.25c4.21-36.08,17-61.65,38-76,29.3-20,64.9-11.12,65.26-11a3.67,3.67,0,1,0,1.85-7.11c-1.6-.4-39.23-9.79-71.27,12.08-22.85,15.6-36.7,42.92-41.17,81.2a3.68,3.68,0,0,0,3.24,4.07A3,3,0,0,0,1185.77,486.68Z"/><path class="cls-4" d="M1292.31,526.93l.21-1.4a1.86,1.86,0,0,0-1.55-2.1l-10.23-1.53a1.85,1.85,0,0,0-2.1,1.55l-.21,1.4A1.84,1.84,0,0,0,1280,527l10.22,1.53A1.85,1.85,0,0,0,1292.31,526.93Z"/><rect class="cls-4" x="1360.58" y="531.73" width="5.11" height="14.04" rx="1.36" transform="translate(2099.26 -728.74) rotate(98.58)"/></svg>